<svg width="810" height="698" viewBox="0 0 810 698" fill="none" xmlns="http://www.w3.org/2000/svg">
<path fill-rule="evenodd" clip-rule="evenodd" d="M211 321.324L212.92 304.443C214.88 287.968 221.08 267.799 229.48 254.205C230.16 253.109 230.64 252.622 231.36 251.567L237.64 243.654C242.4 238.622 247.84 234.483 254.08 231.318C256.44 230.1 257.76 229.492 260.64 228.558C262.76 227.828 265.92 226.611 268.2 226.408C266.88 229.167 263.04 258.182 262.64 261.469C261.28 273.643 260.4 286.791 260.4 300.223C259.04 300.913 255.32 301.562 253.68 302.049C245.16 304.605 242.32 305.011 233.64 308.501C231.52 309.394 229.68 310.165 227.72 311.139L216.44 317.794C214.56 319.052 212.88 320.31 211 321.324ZM1.99997 44.041L1.99997 27.3626C2.35997 24.035 3.43997 21.0321 6.15997 18.2726C9.83997 14.5798 14.44 13.6465 19.56 11.9016C24.6 10.2378 29.52 9.22331 34.88 7.84359C47.8 4.55661 62.72 2.48701 77.64 2.00005L91.64 2.00005C100.92 2.32469 109.92 3.29861 118.16 5.04355C128.2 7.11313 143.96 11.6986 153.08 17.0552C154.72 18.0291 156.44 18.8002 158.16 19.8552C165.32 24.2785 172.4 29.1075 178.44 35.0322C179.16 35.7221 179.6 36.209 180.28 36.8989C183.68 40.3482 186.96 43.7163 189.84 47.5309L193.28 51.9946C194.84 54.3889 196.52 56.3773 197.88 58.9744C198.88 60.8411 199.76 62.0585 200.84 63.8846C204.84 70.7832 207.68 78.4934 210.12 86.1225C212.8 94.4414 214.48 103.328 215.48 112.337C217.16 127.595 217.04 145.248 214.84 160.262C214.44 162.859 213.96 163.062 215.24 164.888L219.64 171.746C224.8 180.146 229.32 188.871 233.08 198.002C234.12 200.599 235.64 203.358 236.24 206.077C238.32 205.59 239.28 204.413 241.24 203.602L257.36 197.758C265 195.486 273.44 194.431 283.4 194.431C289.72 194.431 294.32 195.648 297.8 199.787C298.92 201.167 300.12 203.521 300.64 205.55C301.28 208.147 301.08 210.135 300.84 213.219L295.44 242.761C294.4 248.605 291.88 268.083 291.6 273.886L290.08 312.681C290.12 314.791 290.48 315.278 290.48 317.55C290.48 324.611 290.84 335.325 291.68 341.939C292.92 351.678 293.32 364.704 294.72 374.647C294.92 376.148 295.08 378.177 295.2 379.394C295.44 381.221 296.04 381.91 296.04 383.452C296.04 386.05 295.32 388.728 294.44 390.879C289.96 401.916 272.88 402.363 267.44 390.229C266.08 387.186 261.12 337.719 261.12 331.104C256.6 331.51 243.16 336.867 239.16 339.301L233.08 342.954C231.84 343.684 231.2 344.333 230.04 345.104C228.92 345.875 228.28 346.322 227.2 347.133C226.12 347.945 225.44 348.472 224.44 349.243C220.76 352.044 216.96 355.006 213.72 358.333C212.56 359.47 212.28 359.632 211 360.484L211.6 367.058C211.88 369.006 212.04 371.806 212.12 373.673C212.48 382.073 215.76 391.325 208.72 398.061C202.4 404.067 191.52 403.012 186.48 395.911C183.8 392.096 183.64 388.241 183.16 382.316C182.64 376.148 181.48 369.006 181.28 362.757C180.84 347.012 180.88 330.13 182.08 314.588C183.88 290.849 190.32 264.878 201.48 243.857C212.84 222.431 214.92 231.44 210.24 219.712C209.68 218.373 209 216.75 208.28 215.248C207.52 213.584 207.12 212.529 206.4 210.744C203.88 204.616 196.84 191.306 193.2 185.747C191.24 186.802 188.64 187.735 186.4 188.668C179.48 191.509 172.36 193.7 165.04 195.607C150.88 199.3 140.04 200.436 124.52 200.436C114.12 200.436 102 198.164 94.12 195.486C84.6 192.28 75.36 188.384 67.04 182.662C66.08 182.013 65.2 181.567 64.32 180.917C62.52 179.659 60.88 178.401 59.16 177.103C55.84 174.587 52.76 171.909 49.8 168.906C46.92 165.984 43.64 163.143 41.2 159.938C40.4 158.923 39.84 158.477 39.12 157.503C35.96 153.404 32.48 149.143 29.84 144.679L26.48 139.079C25.44 137.01 24.52 135.305 23.32 133.236C22.24 131.45 21.48 129.259 20.56 127.392C17.56 121.305 15.16 114.934 13 108.32C7.47997 91.5196 4.15997 74.2731 2.75997 56.5802L1.99997 44.041ZM175.36 160.911C173.92 161.033 171.52 162.251 170.12 162.738C168.28 163.387 166.64 163.793 164.68 164.361C161 165.416 157.76 166.471 153.48 167.323C136.36 170.813 119.24 171.99 102.28 166.512C95.72 164.401 89.08 161.317 83.36 157.422L75.32 151.659C74.4 150.929 74.36 150.888 73.56 150.077C71.72 148.251 69.08 146.14 66.32 143.097C65.52 142.245 65.44 141.879 64.64 141.027C60.44 136.442 57.44 132.181 54.16 126.784L43.72 105.763C43.04 103.897 42.48 102.355 41.84 100.528C37.8 88.5167 35.72 79.3862 33.72 66.2383C33.04 61.9368 32.56 57.7164 32.12 53.5367L31.68 43.3917C31.6 41.9714 31.32 41.5656 31.32 40.0235C35.2 39.0902 38.92 37.8728 42.84 37.0206C62.64 32.922 69.68 32.1104 90.72 32.1104C98.52 32.1104 105.56 33.0438 112.16 34.4641C115.36 35.1539 118.4 36.0467 121.68 36.8583C125.16 37.7105 127.68 38.9279 130.76 40.0641C135.4 41.7685 135.72 42.3772 139.04 43.7163C145.64 46.4352 151.64 51.5482 157.16 55.8497C161.32 59.0556 168.16 67.6585 171.12 72.1629C172.08 73.5832 172.44 74.5572 173.36 75.9369C174.32 77.4384 174.68 78.1688 175.48 79.792C179.4 87.7457 179.6 89.3283 182.28 97.4037C183.88 102.273 185.92 112.297 186.44 117.653L187.24 129.259C186.24 129.016 177.32 120.534 176 119.195L170.4 114.366C160.8 106.737 145.88 96.0646 135.64 90.4646C134.48 89.8153 133.52 89.2471 132.32 88.5979L86.36 65.5078C76.36 61.1657 65.84 70.3368 65.84 77.6818C65.84 82.4703 66.12 84.4587 69.04 88.7602C70.52 90.9515 73.2 92.8588 75.76 93.995C77.28 94.6443 78.56 95.1312 79.96 95.7399L97.88 104.302C102.6 106.615 122.52 117.45 126.44 120.169C132.8 124.511 137.36 126.905 144.28 132.181L157.56 142.813C160.52 145.166 173.4 157.949 175.36 160.911Z" stroke="white" stroke-opacity="0.15" stroke-width="3"/>
<path fill-rule="evenodd" clip-rule="evenodd" d="M620.16 401.916C626.92 401.916 634.12 401.024 639.12 399.319C641.72 398.467 644.44 397.331 646.6 395.951C648.52 394.734 651.08 392.786 652.56 391.081L656.92 384.589C657.96 382.438 659.28 379.394 659.96 376.757C662.2 367.789 662.92 351.516 661.64 341.371C660.52 332.809 660 323.475 659.08 314.994C655.68 283.544 654.28 256.802 664.28 226.367C670.12 208.634 680.84 193.294 693.76 180.187C699.08 174.79 701.08 173.288 701.08 165.051C701.08 161.52 698.84 157.624 696.56 155.311C695.52 154.297 693.88 152.998 692.4 152.39C688.04 150.604 682 150.969 678.4 153.688C672.4 158.193 664.76 167.364 659.6 173.451C657.04 176.494 654.88 179.943 652.52 183.19C646.08 191.955 641.28 202.344 637.28 212.529C632.92 223.567 629.96 236.025 628.32 247.915C628.12 249.538 628 251.161 627.72 252.947C627.48 254.733 627.64 256.437 627.36 258.222C625.44 271.208 627.92 303.997 629.12 315.237C629.72 320.675 630.4 326.397 630.96 332.2C631.64 339.423 634.68 361.702 629.96 368.194C624.52 375.702 610.68 369.615 605.88 365.922C603.88 364.38 601.72 362.716 600 360.971C595.96 356.791 590.76 351.11 587.76 346.241C586.92 344.861 586.52 344.13 585.56 342.832C580.84 336.461 577.88 328.872 574.36 321.811C571.48 316.09 569 308.339 567.12 302.049C566.64 300.547 566.2 299.452 565.72 297.829C561.16 281.556 559.6 268.611 558.16 251.243C557.64 244.912 559.44 227.584 560.72 221.132C562.92 209.892 565.56 197.352 570.16 187.004L573.36 179.335C576.92 172.193 580.08 164.767 585.16 158.558C590.32 152.227 592 149.833 598.12 144.598C606.96 137.091 605.48 123.131 594.96 118.302C589.32 115.665 584.44 117.085 579.72 120.656L570.72 128.813C565.04 135.752 559.4 142.65 554.84 150.361C553.08 153.282 551.52 156.285 550 159.41C540.32 179.01 533.68 200.274 530.56 222.187C529.44 230.06 528.72 239.272 528.44 247.509L528.96 260.535C529.6 264.837 529.8 268.773 530.4 272.994C530.96 276.768 531.56 280.866 532.2 284.762C535.08 301.724 540.24 316.374 546.36 332.119C551.44 345.185 560.28 360.484 569 371.319C573.64 377.081 578.56 382.113 584.2 386.78L589.92 391.163C595.44 395.221 601.56 397.98 608.24 400.09C610.76 400.861 616.84 401.916 620.16 401.916Z" stroke="white" stroke-opacity="0.15" stroke-width="3"/>
<path fill-rule="evenodd" clip-rule="evenodd" d="M302.36 653.472C305.4 653.472 309 652.052 310.88 650.834L316.72 645.478C324.16 637.808 331.16 629.773 337.04 620.846L352.4 590.898C362.76 561.68 363.72 535.79 361.4 504.706L357.68 469.32C356.84 461.853 352.4 438.073 362.64 434.056C363.84 433.569 366.72 433.041 368.32 433.244C370.04 433.488 372.16 433.772 373.72 434.218C375.52 434.705 376.6 435.314 378.24 436.004C390.52 441.198 402.88 459.378 408.64 470.334L412.84 478.856C415.72 484.659 418.12 491.152 420.36 497.239C427.44 516.555 430.8 537.697 430.8 558.555C430.8 577.547 424.8 606.399 416.32 624.092C415.8 625.147 415.32 626.405 414.84 627.501C411.04 636.428 404.24 647.547 397.28 654.487C396.4 655.379 395.8 656.11 394.84 656.921C389.84 660.979 385.12 664.875 385.12 673.032C385.12 674.736 385.8 677.333 386.36 678.591C388.24 682.771 392.64 687.356 397.76 687.356C404.4 687.356 405.8 686.788 410.72 682.771L415.48 678.591C416.56 677.658 416.96 676.684 418.08 675.588L430.64 659.681C432.36 657.327 433.56 655.095 435.08 652.539C441 642.597 445.52 631.883 449.12 620.846C450.12 617.843 451.12 615.449 452 612.446C456.56 597.472 460.12 578.602 460.12 562.695C460.12 549.547 460.24 542.039 458.4 529.094C457.92 525.848 457.52 523.494 456.96 520.37C452.76 497.848 444.8 472.769 433.2 452.966L429.48 446.554C426.4 441.32 422.44 436.937 418.76 432.189L416.4 429.308C414.88 427.563 413.08 425.899 411.4 424.235L406.2 419.325C404.12 417.337 401.52 415.673 399.2 414.009C398.64 413.644 398.32 413.319 397.68 412.914C390.08 407.598 381.16 404.108 371.8 403.377C365.96 402.931 367.04 403.458 362.48 403.418C357.56 403.377 349.4 405.366 346.04 407.029L341.32 409.789C334.36 414.293 330.6 421.517 328.48 429.917C326.92 436.247 325.8 446.189 326.76 453.21C326.96 454.954 326.72 456.659 326.88 458.363L330.04 487.905C330.96 494.723 330.84 500.729 331.84 507.546C332.48 512.091 332.8 523.332 332.8 528.445C332.8 543.135 330.4 564.602 325.12 578.237C319.68 592.196 315.36 600.109 306.52 612.162C305.64 613.379 305.24 613.704 304.32 614.799L295.2 624.741C290.6 629.368 287.88 630.22 287.88 639.147C287.88 645.113 291.64 650.023 296.4 651.971C297.68 652.498 300.64 653.472 302.36 653.472Z" stroke="white" stroke-opacity="0.15" stroke-width="3"/>
<path fill-rule="evenodd" clip-rule="evenodd" d="M574.48 665.89C568.28 665.89 564.84 664.632 560.64 660.33C555.2 654.771 554.72 653.472 551.08 647.06C549.4 644.139 549.56 644.139 548.32 640.811C542.08 623.93 544.84 604.208 550.76 588.382C554.6 578.115 558.32 572.393 564.52 563.871L573.68 553.97C574.8 553.077 575.04 552.915 576.04 551.86C580 547.883 591.52 541.39 596.96 539.199C600.76 537.657 607.68 535.952 612.72 535.952C612.72 542.729 611.68 549.222 611.24 555.552C610.76 563.141 607.4 585.947 606.12 592.561C605.56 595.686 605.04 598.243 604.52 601.448C603.16 609.483 596.6 637.362 594.6 644.098C593.08 649.008 590.48 654.608 587.4 657.895C584.84 660.574 586.48 659.884 582 662.968C580 664.307 577.64 665.89 574.48 665.89ZM571.88 696C583.92 696 589.72 693.89 598.92 687.64C602.32 685.368 604.6 683.339 607.44 680.498C608.28 679.606 608.4 679.484 609.16 678.469C613.76 672.504 616.64 668.852 619.88 661.101L622.36 655.704L627.2 636.51C629.76 626.811 633.56 607.657 635.32 596.903C641.04 562.005 643.04 539.686 643.16 501.703C643.2 498.7 642.76 497.279 642.8 494.561C642.88 474.839 639.8 445.905 636.64 426.589C635.92 422.085 635.04 418.757 632.52 416.119C628.12 411.534 626.08 410.925 620.16 410.925C616.64 410.925 613.28 412.792 610.92 415.105C604.52 421.314 606.6 428.74 607.76 435.598L610.28 454.468C611.12 460.514 611.48 468.265 612.24 473.946L613.08 489.285C613.08 491.72 613.44 492.532 613.48 494.52C613.52 496.265 613.44 498.091 613.44 499.836C613.48 501.987 613.84 502.677 613.84 505.071C601.32 505.071 582.96 511.077 572.56 517.448C566.88 520.897 558.56 526.578 553.96 531.367C552.88 532.503 552.24 532.787 551.2 533.802C550.2 534.735 549.32 535.628 548.4 536.602C547.36 537.697 547.08 538.346 546 539.442C544.8 540.66 544.44 541.147 543.4 542.445C538.16 548.978 536.44 551.292 532.32 558.352L528.56 565.454C520.56 579.86 514 604.817 515.44 622.225C516.08 630.057 515.44 633.101 517.76 641.704C520.88 653.229 524.6 661.913 531.28 671.693C532.8 673.924 534.36 675.588 536.04 677.78C536.56 678.469 536.68 678.591 537.28 679.119C537.64 679.443 537.6 679.362 537.92 679.646C543.12 684.394 547 688.574 554.64 691.658C557.4 692.754 559.36 693.93 562.4 694.701C564.96 695.391 568.96 696 571.88 696Z" stroke="white" stroke-opacity="0.15" stroke-width="3"/>
<path fill-rule="evenodd" clip-rule="evenodd" d="M376.6 269.341C376.6 246.535 383.56 204.616 389.08 182.216C390 178.401 394.28 160.465 395.4 157.787C397.2 153.567 399.76 149.265 402.52 145.775C406.48 140.784 412.4 137.091 419 138.998C432.76 142.975 442.24 161.723 443.8 176.332C444.72 185.097 444.24 189.886 442.96 198.813C442.24 203.886 439.8 213.706 437.6 218.251C435.68 222.309 434 226.773 431.4 230.79C428 235.944 428.12 236.187 423.76 241.869C418.56 248.605 408.28 258.02 400.48 261.956C388.2 268.124 377.76 268.814 376.6 269.341ZM366.56 393.638C371.88 393.638 374.84 392.583 377.8 389.58C380.6 386.78 382.24 384.142 382.64 379.76C382.96 375.945 381.64 371.481 380.88 367.423C380.08 363.041 379.68 359.226 379.04 354.641L375.48 314.182C375.4 309.313 375.48 304.362 375.48 299.492C387.76 298.437 395.84 296.571 406.92 291.823L411.64 289.794C417.32 286.913 418.48 286.304 424.04 282.449C426.92 280.46 432.6 276.078 434.96 273.602C436.4 272.101 438.44 270.681 440.16 268.692C449.8 257.614 456.6 248.362 462.76 234.727C463.48 233.103 464 231.805 464.76 229.979C469.8 217.724 473.88 202.952 473.88 185.746C473.88 171.503 470.6 156.448 464.84 144.842C461.6 138.349 456.4 130.152 451.32 125.039C442.96 116.598 430.28 108.563 417.8 108.563C407.04 108.563 398.96 110.917 390.2 116.679C384.48 120.453 378.48 127.595 374.6 133.236C373.12 135.387 368.56 143.503 367.56 146.1L365 155.92C362.96 164.361 360.52 172.761 358.56 181.77C357.56 186.315 357 190.413 355.96 194.958C354.88 199.625 354.24 203.602 353.48 208.634C352.84 212.935 351.84 217.683 351.12 222.431C347.08 249.133 345.92 276.483 345.8 305.133C345.76 308.014 346.16 309.232 346.16 311.91C346.16 314.182 346.04 316.82 346.16 319.052C346.24 320.716 346.48 320.635 346.52 322.42C346.88 334.716 348.16 341.533 349.12 352.977C349.88 361.864 351.32 369.939 352.64 378.38C353.4 383.371 354.04 385.887 356.8 388.85C358.96 391.122 362.36 393.638 366.56 393.638Z" stroke="white" stroke-opacity="0.15" stroke-width="3"/>
<path fill-rule="evenodd" clip-rule="evenodd" d="M721.12 578.886L725.12 552.428C725.56 549.1 725.64 546.3 726.12 542.891C726.52 539.97 726.84 536.358 727.04 533.68C727.64 526.538 728.56 516.474 728.56 509.575C728.56 507.303 728.92 506.856 728.92 504.706C731.24 504.178 733.52 503.448 735.68 502.92C738.16 502.271 740.32 501.662 742.64 500.891C744.68 500.201 746.88 499.633 749.12 498.822C751.4 498.05 753.32 497.158 755.4 496.184C756.44 495.697 757.36 495.332 758.28 494.926C758.72 494.723 759.32 494.479 759.8 494.236L772.6 486.85C774.56 485.633 775.96 484.294 777.96 483.239C777.96 486.85 777.48 488.839 777.2 491.923C776.76 497.198 774.32 511.564 773 516.271C767.52 535.141 765.28 543.581 753.64 558.799L748.92 563.79C747.96 564.561 747.4 565.332 746.48 566.184C743.6 568.782 738.52 572.028 735.12 573.895C733.36 574.869 730.4 575.964 728.52 576.613L721.12 578.886ZM808 458.079L808 467.737C807.96 473.946 807.84 479.424 807.6 481.697L806.76 492.126C804.2 510.062 804.28 512.01 799.76 529.865C798.24 535.952 798.08 535.79 796.28 541.39C793.92 548.694 790.68 555.471 787.12 562.208C781.72 572.393 772.64 583.593 763.64 590.735L755.16 596.863C745.12 602.341 746.72 601.895 734.56 606.075C724.04 609.686 713.56 610.133 702.56 610.133C693.56 610.133 685.88 601.651 688.28 592.277C688.52 591.385 688.64 590.532 688.8 589.802L695.2 551.454C697.92 532.016 698.88 516.555 698.88 496.427L698.48 481.737C698.52 479.546 698.2 478.978 698.12 477.233L697 458.404C696.32 449.72 694.76 440.305 694.04 431.662C693.52 425.412 692.04 418.879 695.04 413.441C695.92 411.818 696.84 410.641 698.16 409.464C703.56 404.879 710.64 403.621 716.48 408.125C718.44 409.627 720.32 411.737 721.4 414.09C722.92 417.337 724.72 437.343 725.48 443.43L728.2 473.459C729.76 473.337 732.44 472.444 733.8 471.998C745.2 468.468 754.96 463.07 764.4 455.604L777.32 444.566C778.16 443.511 778 443.673 777.96 441.847L776.92 429.308C776.64 426.995 776.64 425.331 776.36 423.099C775.24 414.699 775.4 411.006 782.12 405.406C787.96 400.577 798.48 402.038 803.28 409.708C805.48 413.319 805.96 419.812 806.48 424.925C807.08 430.769 807.16 436.856 807.64 442.578C807.84 445.134 807.96 451.302 808 458.079Z" stroke="white" stroke-opacity="0.15" stroke-width="3"/>
<path fill-rule="evenodd" clip-rule="evenodd" d="M253.32 602.26C259.52 602.26 264 601.895 269.88 600.596C274.08 599.622 278.28 598.08 281.68 596.335C289.36 592.44 296.44 587.448 302.24 581.077C303.08 580.144 303.2 579.738 304.12 578.805C312.72 569.837 321.28 552.063 321.28 539.361C321.28 532.909 321.76 525.036 319.52 519.274C313 502.514 307.8 495.453 291.08 487.906C278.32 482.103 265.68 483.279 252.48 485.024L237.76 485.877C227.24 485.877 221.16 483.158 216.04 474.352C215 472.566 214.64 471.917 213.92 469.726C211.36 461.813 210.12 455.036 213.84 447.325C214.6 445.743 215.44 444.485 216.68 443.43C218 442.334 219.32 441.401 220.92 440.549C227.64 437.099 234.92 436.247 244.4 436.937C253.68 437.627 267.52 441.563 275.6 447.082C278.32 448.908 281.2 451.221 285.64 451.221C299.72 451.221 307.8 431.783 292.52 422.409C287.56 419.366 284.64 417.093 278.64 414.659C262.44 408.085 255.2 406.786 236.24 406.786C224.8 406.786 210.96 410.357 202.16 417.012C200.88 417.986 199.6 418.595 198.48 419.69C191.16 426.711 186.44 433.325 184 443.389C180.4 457.998 181.68 468.265 187.24 482.508C190.56 490.99 197.12 500.282 204.32 505.842C215.6 514.567 228.28 516.068 242.2 515.662L253.6 514.769C255.92 514.445 258.48 514.688 261.12 514.485C263.56 514.283 265.76 513.755 268.56 513.755C281.2 513.755 291.96 520.207 291.96 533.72C291.96 542.364 289.32 548.978 284.32 555.715C280.36 561.071 275.72 565.495 269.56 568.619C263.56 571.622 259.04 572.109 252.24 572.109C240.6 572.109 229.8 566.103 222.04 558.271C219.24 555.431 215.72 550.805 213.84 547.396C211.52 543.135 209.84 536.358 208.12 534.004C198.8 521.262 180.92 528.08 180.92 542.729C180.92 545.651 181.68 547.274 182.48 549.465C183.16 551.373 183.92 553.442 184.76 555.431C186.92 560.26 190.64 567.158 193.84 571.095C201.04 579.9 204.56 584.364 215.04 591.019C225.6 597.756 239.48 602.26 253.32 602.26Z" stroke="white" stroke-opacity="0.15" stroke-width="3"/>
<path fill-rule="evenodd" clip-rule="evenodd" d="M717.04 320.959L721.52 320.959C739.76 320.959 763.64 313.208 772.88 329.481C778.24 338.936 781.08 355.614 770 363C762.52 367.951 754.2 367.626 745.28 367.626C734.24 367.626 722 363.203 713.64 357.562C710.24 355.249 707.92 353.342 702.96 353.342C695.56 353.342 688.48 360.119 688.48 368.762C688.48 377.041 694.56 381.058 700.4 384.873C701.64 385.684 702.72 386.131 704 386.902C709.48 390.31 722.44 394.612 728.88 395.91C742.4 398.629 759 398.589 772.6 394.612C780.16 392.421 784.56 389.864 790.04 385.563C791.72 384.223 795.28 380.571 796.52 378.948C799.96 374.403 798.04 377.041 800.36 373.064C804.68 365.76 807.28 356.101 807.28 346.565C807.28 336.014 803.28 322.826 798.2 314.304C797.36 312.884 796.52 311.666 795.56 310.246C787.68 298.721 772.52 288.941 754.56 288.941L748.6 288.941C735.72 288.941 712.4 294.623 703.76 285.817C701.88 283.91 700.48 282.773 699.2 280.298C694.04 270.072 698.72 258.222 704.36 249.701C710.2 240.814 721.08 232.454 733.4 232.454C746.76 232.454 762.08 238.906 769.92 249.619C774.8 256.234 776.04 258.019 778.92 266.501C779.44 268.124 780.08 269.544 781 270.762C791.4 284.194 808 275.55 808 262.97C808 254.773 802.2 243.938 798.2 237.851C797.16 236.228 796.08 234.767 794.96 233.266C793.76 231.602 792.48 230.222 791.32 228.68C789.84 226.732 785.12 222.268 783 220.564C780.4 218.495 774.16 213.868 771.12 212.245C755.36 203.683 737.4 199.462 719.64 204.21C706.88 207.619 697.6 212.813 688.2 222.39C682.72 227.909 677.84 234.929 674.36 241.869C667.48 255.422 664.24 278.634 672.28 292.147C674.04 295.069 673.72 295.475 676.72 300.101C678.8 303.266 681.24 305.782 684.08 308.095C687.92 311.22 687.84 311.423 692.72 314.385C698.2 317.713 709.4 320.959 717.04 320.959Z" stroke="white" stroke-opacity="0.15" stroke-width="3"/>
<path fill-rule="evenodd" clip-rule="evenodd" d="M477.6 398.508C490.96 398.508 506.8 395.911 519.4 392.705L537.48 386.942C552.4 380.612 548.72 357.846 532.16 357.846C528.2 357.846 501.84 368.032 480.92 368.032C470.48 368.032 462.4 367.91 453.52 363.041C451.92 362.148 451.32 361.458 449.88 360.322C442.8 354.681 442.6 341.168 447.88 331.875C448.32 331.145 449.12 329.887 449.68 329.156C455.12 322.217 473.56 307.446 479.24 300.02C480.04 298.965 480.56 298.6 481.4 297.707C482.08 296.895 482.68 296.043 483.36 295.191C491 285.289 495.24 278.31 500.6 267.475C501.08 266.501 501.64 265.446 502.08 264.472C505.88 255.909 510.4 243.37 512.84 234.321C514.16 229.573 515.16 224.906 516.4 219.874C517.68 214.842 518.44 209.445 519.44 204.494C520.48 199.26 525.16 164.158 525.12 155.636C525.08 149.59 525.84 144.72 525.84 137.537C525.84 127.433 512.84 117.897 501.28 127.676C500.6 128.285 499.56 129.665 499.12 130.395C496.24 135.184 496.76 140.459 496.52 147.723C496.32 155.109 493.88 177.346 492.92 184.002C490.48 201.126 487.76 216.344 482.36 232.779C479.4 241.788 475.4 252.176 470.56 260.333C466.2 267.678 465.92 268.246 460.76 275.266C458.16 278.837 452.16 285.289 449.08 288.292L438.68 297.707C432.2 304.362 431.04 304.321 424.04 312.965C412.72 326.803 411.6 352.003 419.16 368.154C423.44 377.244 432.4 386.009 441.12 390.31C442.68 391.082 444.24 391.934 446.2 392.705C455.36 396.276 466.48 398.508 477.6 398.508Z" stroke="white" stroke-opacity="0.15" stroke-width="3"/>
<path fill-rule="evenodd" clip-rule="evenodd" d="M457.52 446.352C462.64 446.352 465.36 445.175 470.56 443.389C479.12 440.467 496.4 436.572 505.44 436.572C517.44 436.572 520.24 436.085 532.04 440.062C538 442.091 543.36 448.299 544.6 454.062C546.08 461.123 544.24 469.523 539.88 474.879C535.92 479.749 533.4 481.575 529.08 485.43C528.12 486.282 527.48 487.134 526.52 488.068L518.16 495.778C511.44 502.555 511.2 503.123 505.52 509.697L503.08 512.862C501.4 514.972 500.12 516.961 498.6 519.233C492.32 528.81 488.24 536.764 484.04 547.436C477.12 565.089 476.08 570.77 471.64 589.072C470 595.93 466.28 618.857 465.72 625.999C464.72 639.391 462.72 652.579 462.72 666.255C462.72 673.356 469.04 680.945 476.84 680.945C481.84 680.945 484.48 680.214 487.88 676.724C489.08 675.466 490 674.574 490.84 672.91C493.12 668.284 492.24 660.208 492.84 654.649C493.28 650.916 493.68 646.005 493.92 642.15C494.16 638.173 494.72 633.791 495.04 629.733C495.72 621.779 498.96 603.072 500.68 594.793C502.36 586.758 504.12 581.321 506.32 573.408C509.04 563.628 515.36 549.303 520.72 540.578C521.68 538.996 522.24 537.778 523.24 536.358C524.2 534.978 525 533.883 526 532.341C527.96 529.338 531.12 525.767 533.56 523.088C536.04 520.37 537.88 517.569 541.76 514.445L562.48 494.804C566.6 489.853 570.2 484.578 572.32 477.639C575.4 467.453 575.52 453.25 572.16 442.294C570.76 437.586 568 432.92 565.16 429.064C564.08 427.604 563.44 426.67 562.16 425.331C555 418.189 551.04 415.795 541.96 411.899C540.84 411.453 540.72 411.29 539.6 410.925C523.68 406.096 520.92 406.421 504.32 406.421C491.88 406.421 478.28 409.789 468.24 412.386C465.04 413.198 455.08 416.119 452.44 417.459C450.12 418.635 448.16 420.218 446.72 422.166C441.2 429.633 443.64 440.751 452.08 444.728C453.28 445.296 456.04 446.352 457.52 446.352Z" stroke="white" stroke-opacity="0.15" stroke-width="3"/>
<path fill-rule="evenodd" clip-rule="evenodd" d="M665.08 603.762C668.76 603.762 673.48 601.408 675.36 599.501L678.32 595.361C680.48 591.222 683.08 569.35 683.6 563.79C685.28 545.854 687.36 528.567 687.36 508.845C687.36 503.448 687.8 499.958 687.36 494.885C687.04 490.624 687.32 484.659 687.36 480.236L686.6 466.317C685.92 452.763 684.68 439.534 682.84 426.062C681.96 419.853 680.4 415.714 674.6 412.548C666.56 408.206 655.96 412.832 653.84 422.125C652.76 426.914 654.88 437.667 655.4 444.12C658.44 481.494 659.44 508.723 655.48 546.178C654.32 557.338 653.36 566.266 651.56 577.222C650.16 585.703 648.36 593.008 654.6 599.338C657.16 601.935 661.08 603.762 665.08 603.762Z" stroke="white" stroke-opacity="0.15" stroke-width="3"/>
<path fill-rule="evenodd" clip-rule="evenodd" d="M320.52 394.003C329.96 394.003 335.76 387.51 335.76 377.812C335.76 374.647 335 372.212 334.52 369.249C333.16 360.809 330.96 341.655 330.56 333.377C330.08 323.313 329.44 313.411 329.44 303.226L331 268.652C331.36 265.162 331.76 261.469 332.08 257.695C332.64 250.877 333.76 243.005 335.04 236.634L339.08 216.263C339.08 209.851 335.32 204.697 329.92 202.587C323.76 200.112 318.36 200.964 313.76 205.631C309.36 210.054 308 221.457 306.92 228.031C306.16 232.332 305.36 236.431 304.68 240.448L300.52 279.933C299.84 287.886 300.12 301.278 300.12 309.272C300.12 326.6 301.8 342.751 303.52 358.536C304.4 366.368 305.6 374.038 306.8 381.586C307.92 388.647 313.96 394.003 320.52 394.003Z" stroke="white" stroke-opacity="0.15" stroke-width="3"/>
<path fill-rule="evenodd" clip-rule="evenodd" d="M650.96 667.391C657 667.391 662.4 663.333 664.56 657.814C665.16 656.272 665.36 655.055 665.88 653.513C666.32 652.052 666.84 650.429 667.28 648.887C668.48 644.544 670.04 634.724 671.32 629.286C675.12 612.851 656.44 603.559 646.36 614.515C643.16 618.005 643.2 620.278 641.92 625.431L637.76 644.585C636.44 649.942 636.12 647.263 636.12 653.472C636.12 657.53 638.56 661.061 640.64 663.171C642.76 665.281 646.96 667.391 650.96 667.391Z" stroke="white" stroke-opacity="0.15" stroke-width="3"/>
<path fill-rule="evenodd" clip-rule="evenodd" d="M332.4 194.796C343.4 194.796 346.4 184.691 348.12 175.683C348.36 174.262 348.56 172.599 348.92 170.854C349.24 169.109 349.68 167.77 350.08 166.025C352.52 156.285 356.2 148.007 346.96 140.5C340.2 135.021 331.36 137.456 327.36 142.204C324.92 145.166 323.48 149.346 322.48 153.445C320.56 161.033 319.88 165.984 318.32 173.37C317.2 178.929 315.92 185.706 321.68 190.616C323.64 192.239 323.32 192.564 326.24 193.538C327.88 194.065 330.44 194.796 332.4 194.796Z" stroke="white" stroke-opacity="0.15" stroke-width="3"/>
</svg>
