<svg width="88" height="50" viewBox="0 0 88 50" fill="none" xmlns="http://www.w3.org/2000/svg">
<path d="M29.94 35.0037C30.6086 41.7741 25.7939 47.3295 23.303 49.2609C25.1384 45.9506 25.3187 32.4964 21.2382 23.1556C17.1577 13.8147 4.81793 8.25931 0 8.30847C0.868538 7.43993 3.70686 5.93883 8.11182 6.88276C12.5168 7.82668 15.224 10.3569 16.027 11.504C15.8795 5.8995 19.4192 0 26.5478 0C32.7914 0 34.8071 4.08049 36.9211 6.83359C39.035 9.5867 42.5747 8.75093 44.1971 8.45596C45.8195 8.16098 44.5413 10.7666 41.739 11.7498C39.4972 12.5364 37.511 11.6024 36.9211 11.0616C36.0853 16.0762 31.9065 18.1901 29.3992 18.1901C26.8919 18.1901 22.5164 16.7437 22.5164 10.6191C22.5164 5.30955 29.9892 6.14532 29.8908 9.68502C29.798 13.0268 26.9411 12.1923 26.5478 12.9297C26.1545 13.6672 28.9567 15.8795 31.5132 13.8638C32.9384 12.7401 33.6272 9.48837 32.5456 6.83359C31.7845 4.96542 29.2026 3.49054 26.7444 3.49054C21.3857 3.49054 18.3868 8.06266 19.96 13.8638C21.4009 19.1775 29.1042 26.5408 29.94 35.0037Z" fill="#80C242"/>
<path fill-rule="evenodd" clip-rule="evenodd" d="M78.3157 26.0627C75.2131 26.3059 72.5078 27.5734 71.2788 29.3596C70.5629 30.4 70.2763 31.7965 70.5314 33.0004C70.7355 33.964 71.0766 34.5879 71.8439 35.4013C72.9837 36.6096 74.2698 37.3494 77.8889 38.8787C81.2118 40.2828 82.5118 41.1448 83.1881 42.3924C83.5131 42.9917 83.5269 43.0593 83.5269 44.0496C83.5269 44.9588 83.4962 45.1466 83.2703 45.6228C82.7357 46.7493 81.7004 47.541 80.233 47.9454C79.3367 48.1924 77.0967 48.1922 76.2017 47.945C74.6404 47.5138 73.3048 46.6476 72.3511 45.4473C71.816 44.7741 70.8921 43.0836 70.8921 42.7779C70.8921 42.6752 70.7672 42.6607 70.328 42.7123C70.0178 42.7488 69.7236 42.819 69.6742 42.8684C69.5491 42.9935 70.3592 46.9532 70.6848 47.8078C70.8067 48.1276 71.1423 48.2821 72.5636 48.6729C74.3809 49.1724 75.4994 49.2919 77.824 49.2349C79.7117 49.1885 79.9878 49.1586 81.0419 48.8857C84.4965 47.9915 86.7292 46.0424 87.1111 43.5876C87.4997 41.0896 86.0852 39.0536 82.8692 37.4824C82.0025 37.059 79.846 36.1358 78.8246 35.751C76.999 35.0632 75.1207 33.9076 74.5358 33.1124C74.0011 32.3851 73.8176 31.734 73.8637 30.7266C73.9131 29.6478 74.1659 29.0848 74.9168 28.3825C75.8271 27.5309 77.095 27.1096 78.7581 27.1059C80.0247 27.103 80.7543 27.2492 81.6869 27.6928C82.803 28.2236 83.4382 28.9202 84.1371 30.3804L84.7068 31.5704L85.2229 31.5337C85.5068 31.5135 85.768 31.4679 85.8036 31.4325C85.8718 31.3642 85.2752 27.3312 85.1455 26.984C85.0849 26.8214 84.8774 26.7384 84.1017 26.5661C82.0174 26.1031 80.0182 25.9292 78.3157 26.0627ZM32.0537 26.5408V27.0254L32.5699 27.1327C33.7105 27.3698 34.639 28.0228 35.1223 28.9281L35.3476 29.35L35.3798 36.2819C35.4112 43.0494 35.3378 45.6469 35.0862 46.6679C34.8677 47.5544 34.1027 48.0951 32.7909 48.2902L32.0537 48.3998V48.8304V49.2609H36.2325H40.4113V48.8307C40.4113 48.4276 40.3921 48.3967 40.1041 48.3391C39.9351 48.3052 39.6743 48.2776 39.5245 48.2776C39.3747 48.2776 38.9648 48.1888 38.6136 48.0804C38.1353 47.9327 37.8889 47.7878 37.6319 47.5033C37.2069 47.033 37.1043 46.7204 36.9655 45.4753C36.8286 44.2463 36.7115 30.9949 36.8364 30.8699C36.8887 30.8176 37.4656 31.448 38.2503 32.4149C38.9791 33.3133 40.4989 35.1814 41.6273 36.5663C42.7559 37.9511 44.0036 39.4824 44.4001 39.9691C45.7181 41.5869 50.8746 47.9307 51.4164 48.601L51.9497 49.2609H52.5604H53.171L53.2208 39.9446C53.2784 29.2072 53.3165 28.5742 53.9512 27.82C54.3466 27.3501 54.6866 27.2173 56.0696 26.9922C56.4316 26.9332 56.4383 26.9242 56.4383 26.4931V26.054L52.2841 26.0796L48.1299 26.1053L48.1 26.5164L48.0701 26.9274L48.5424 26.985C50.8211 27.2628 51.3705 27.6666 51.6208 29.2478C51.8199 30.5059 51.9098 33.4352 51.9126 38.7647C51.9148 42.9956 51.8903 44.0496 51.7895 44.0496C51.7202 44.0496 51.5101 43.8556 51.3225 43.6185C51.1348 43.3814 50.3377 42.419 49.5511 41.4799C46.3068 37.6065 44.6694 35.6431 44.3443 35.2363C44.1551 34.9994 42.3631 32.8389 40.3622 30.435L36.7242 26.0645L34.3889 26.0604L32.0537 26.0561V26.5408ZM57.7166 26.4942C57.7166 26.9919 57.573 26.9318 59.2285 27.1275C60.2515 27.2483 60.8766 27.5182 61.1471 27.9559C61.5396 28.5911 61.5618 29.1786 61.5314 38.1037L61.5021 46.6607L61.2509 47.1496C60.8558 47.9189 60.3565 48.1177 58.2819 48.3318L57.7166 48.3901V48.8255V49.2609H63.3211H68.9256V48.8318V48.4027L68.4694 48.3401C68.2186 48.3057 67.8843 48.2776 67.7268 48.2776C67.5693 48.2776 67.1219 48.2052 66.7327 48.1168C65.8047 47.9059 65.3644 47.4987 65.198 46.6975C65.1163 46.3038 65.0925 43.7073 65.1125 37.3578C65.1388 28.9843 65.1489 28.5456 65.3246 28.1921C65.66 27.517 66.3289 27.1966 67.636 27.0849C68.9644 26.9714 68.9256 26.9891 68.9256 26.4942V26.0561H63.3211H57.7166V26.4942Z" fill="#98643D"/>
</svg>
